<?xml version="1.0" encoding="UTF-8"?><svg id="Laag_2" xmlns="http://www.w3.org/2000/svg" xmlns:xlink="http://www.w3.org/1999/xlink" viewBox="0 0 51.18 34.12"><defs><style>.cls-1{clip-path:url(#clippath);}.cls-2{fill:none;}.cls-2,.cls-3,.cls-4,.cls-5{stroke-width:0px;}.cls-3{fill:#283384;}.cls-4{fill:#c91517;}.cls-5{fill:#fff;}</style><clipPath id="clippath"><circle class="cls-2" cx="25.59" cy="17.06" r="17.06"/></clipPath></defs><g id="taal_buttons"><g class="cls-1"><polygon class="cls-3" points="0 22.75 0 26.04 6.59 22.75 0 22.75"/><polygon class="cls-3" points="30.86 23.51 30.86 34.12 51.18 34.12 51.18 33.67 30.86 23.51"/><polygon class="cls-3" points="0 33.67 0 34.12 19.49 34.12 19.49 23.93 0 33.67"/><polygon class="cls-3" points="51.18 11.37 51.18 8.08 44.59 11.37 51.18 11.37"/><polygon class="cls-3" points="51.18 .45 51.18 0 30.86 0 30.86 10.61 51.18 .45"/><polygon class="cls-3" points="51.18 26.04 51.18 22.75 44.59 22.75 51.18 26.04"/><polygon class="cls-3" points="19.49 0 0 0 0 .45 19.49 10.19 19.49 0"/><polygon class="cls-3" points="0 8.08 0 11.37 6.59 11.37 0 8.08"/><polygon class="cls-4" points="16.76 22.75 14.22 22.75 0 29.86 0 32.4 19.3 22.75 16.76 22.75"/><polygon class="cls-4" points="34.42 11.37 36.96 11.37 51.18 4.26 51.18 1.72 31.88 11.37 34.42 11.37"/><polygon class="cls-4" points="11.67 11.37 14.22 11.37 0 4.26 0 6.81 9.13 11.37 11.67 11.37"/><polygon class="cls-4" points="39.51 22.75 36.96 22.75 51.18 29.86 51.18 27.31 42.05 22.75 39.51 22.75"/><polygon class="cls-5" points="0 20.47 0 22.75 6.59 22.75 0 26.04 0 29.86 14.22 22.75 16.76 22.75 19.3 22.75 0 32.4 0 33.67 19.49 23.93 19.49 34.12 21.76 34.12 21.76 20.47 0 20.47"/><polygon class="cls-5" points="51.18 13.65 51.18 11.37 44.59 11.37 51.18 8.08 51.18 4.26 36.96 11.37 34.42 11.37 31.88 11.37 51.18 1.72 51.18 .45 30.86 10.61 30.86 0 28.59 0 28.59 13.65 51.18 13.65"/><polygon class="cls-5" points="51.18 33.67 51.18 29.86 36.96 22.75 39.51 22.75 42.05 22.75 51.18 27.31 51.18 26.04 44.59 22.75 51.18 22.75 51.18 20.47 28.59 20.47 28.59 34.12 30.86 34.12 30.86 23.51 51.18 33.67"/><polygon class="cls-5" points="21.76 0 19.49 0 19.49 10.19 0 .45 0 4.26 14.22 11.37 11.67 11.37 9.13 11.37 0 6.81 0 8.08 6.59 11.37 0 11.37 0 13.65 21.76 13.65 21.76 0"/><polygon class="cls-4" points="51.18 20.47 51.18 13.65 28.59 13.65 28.59 0 21.76 0 21.76 13.65 0 13.65 0 20.47 21.76 20.47 21.76 34.12 28.59 34.12 28.59 20.47 51.18 20.47"/></g></g></svg>